<svg xmlns="http://www.w3.org/2000/svg" version="1.1" xmlns:xlink="http://www.w3.org/1999/xlink" xmlns:svgjs="http://svgjs.dev/svgjs" width="1000" height="623" viewBox="0 0 1000 623"><g transform="matrix(1,0,0,1,-0.6060606060606233,0.2522267206477409)"><svg viewBox="0 0 396 247" data-background-color="#ffffff" preserveAspectRatio="xMidYMid meet" height="623" width="1000" xmlns="http://www.w3.org/2000/svg" xmlns:xlink="http://www.w3.org/1999/xlink"><g id="tight-bounds" transform="matrix(1,0,0,1,0.2400000000000091,-0.09999999999999432)"><svg viewBox="0 0 395.52 247.2" height="247.2" width="395.52"><g><svg></svg></g><g><svg viewBox="0 0 395.52 247.2" height="247.2" width="395.52"><g transform="matrix(1,0,0,1,75.54432,64.11022173375827)"><svg viewBox="0 0 244.43135999999998 118.97955653248347" height="118.97955653248347" width="244.43135999999998"><g><svg viewBox="0 0 244.43135999999998 118.97955653248347" height="118.97955653248347" width="244.43135999999998"><g><svg viewBox="0 0 244.43135999999998 118.97955653248347" height="118.97955653248347" width="244.43135999999998"><g><svg viewBox="0 0 244.43135999999998 118.97955653248347" height="118.97955653248347" width="244.43135999999998"><g><svg viewBox="0 0 244.43135999999998 118.97955653248347" height="118.97955653248347" width="244.43135999999998"><g><svg viewBox="0 0 244.43135999999998 76.25743613865731" height="76.25743613865731" width="244.43135999999998"><g transform="matrix(1,0,0,1,0,0)"><svg width="244.43135999999998" viewBox="0.699999988079071 -35.20000076293945 113.94000244140625 35.54999923706055" height="76.25743613865731" data-palette-color="#000000"><path d="M17.1-32.05L27.8 0 23.7 0 22.95-3.2 21.15-8.7 13.95-8.85 7.45-8.7 5.5-3.4 4.7 0 0.7 0 12.45-32.05 17.1-32.05ZM14.3-12L20.05-12.1 14.85-27.9 14.5-27.9 8.7-12.1 14.3-12ZM42.5-35.2Q44.3-35.2 46.4-34.75L46.4-34.75 46.1-31.65 45.8-31.4Q44-32.3 42.15-32.3L42.15-32.3Q40.2-32.3 39.15-31.08 38.1-29.85 38.05-27.45L38.05-27.45 38-22.85 44-22.85 44.15-22.55 43.9-20.2 37.95-20.2 37.85-10.05 38.1 0 34.15 0 34.45-9.75 34.35-20.2 30.9-20.2 30.7-20.5 30.95-22.85 34.35-22.85 34.3-26.85Q34.25-30.9 36.4-33.05 38.55-35.2 42.5-35.2L42.5-35.2ZM62.25 0L62.5-15.55Q62.55-17.6 61.55-18.75 60.55-19.9 58.59-19.9L58.59-19.9Q55.45-19.9 51.8-16.35L51.8-16.35 51.8-10.05 52 0 48.05 0 48.3-9.7 48.09-22.65 51.84-23 51.84-19.65 52.15-19.65Q55.25-22.4 58.5-23.2L58.5-23.2Q62.25-23.2 64.22-21.45 66.2-19.7 66.15-16.45L66.15-16.45 66.05-9.95 66.25 0 62.25 0ZM81.39-23.3Q84.64-23.3 86.52-21.7 88.39-20.1 88.39-17.3L88.39-17.3Q88.39-16.45 88.09-11.15L88.09-11.15Q87.79-5.85 87.79-4.95L87.79-4.95Q87.79-3.85 88.14-3.43 88.49-3 89.34-3L89.34-3Q90.09-3 91.04-3.3L91.04-3.3 91.44-2.95 91.04-0.7Q89.59 0.15 88.19 0.3L88.19 0.3Q86.64 0.15 85.72-0.8 84.79-1.75 84.74-3.4L84.74-3.4 84.39-3.4Q81.69-0.65 79.04 0.35L79.04 0.35Q75.69 0.35 73.82-1.33 71.94-3 71.94-5.9L71.94-5.9Q71.94-8.1 73.12-9.4 74.29-10.7 76.59-11.25L76.59-11.25 84.69-13.15 84.74-16.4Q84.74-18.35 83.72-19.4 82.69-20.45 80.79-20.45L80.79-20.45Q79.09-20.45 77.39-19.65 75.69-18.85 73.74-17.15L73.74-17.15 73.34-17.35 72.84-20.2Q76.99-23.3 81.39-23.3L81.39-23.3ZM84.64-10.6L77.39-8.85Q76.39-8.55 75.94-8.03 75.49-7.5 75.49-6.45L75.49-6.45Q75.49-4.8 76.42-3.88 77.34-2.95 78.89-2.95L78.89-2.95Q81.64-2.95 84.49-6.5L84.49-6.5 84.64-10.6ZM110.64 0L110.89-15.55Q110.94-17.6 109.94-18.75 108.94-19.9 106.99-19.9L106.99-19.9Q103.84-19.9 100.19-16.35L100.19-16.35 100.19-10.05 100.39 0 96.44 0 96.69-9.7 96.49-22.65 100.24-23 100.24-19.65 100.54-19.65Q103.64-22.4 106.89-23.2L106.89-23.2Q110.64-23.2 112.61-21.45 114.59-19.7 114.54-16.45L114.54-16.45 114.44-9.95 114.64 0 110.64 0Z" opacity="1" transform="matrix(1,0,0,1,0,0)" fill="#000000" class="undefined-text-0" data-fill-palette-color="primary" id="text-0"></path></svg></g></svg></g><g transform="matrix(1,0,0,1,0,94.25998663252697)"><svg viewBox="0 0 244.43135999999998 24.7195698999565" height="24.7195698999565" width="244.43135999999998"><g transform="matrix(1,0,0,1,0,0)"><svg width="244.43135999999998" viewBox="1.7999999523162842 -37 459.760009765625 46.5" height="24.7195698999565" data-palette-color="#61777f"><path d="M16.05 0.5L16.05 0.5Q11.4 0.5 8.28-0.88 5.15-2.25 3.53-4.48 1.9-6.7 1.8-9.15L1.8-9.15Q1.8-9.6 2.1-9.9 2.4-10.2 2.85-10.2L2.85-10.2 7.3-10.2Q7.95-10.2 8.28-9.93 8.6-9.65 8.85-9.25L8.85-9.25Q9.15-8.3 10-7.38 10.85-6.45 12.33-5.85 13.8-5.25 16.05-5.25L16.05-5.25Q19.65-5.25 21.43-6.45 23.2-7.65 23.2-9.7L23.2-9.7Q23.2-11.15 22.25-12.03 21.3-12.9 19.33-13.63 17.35-14.35 14.1-15.15L14.1-15.15Q10.35-16.05 7.83-17.32 5.3-18.6 4.03-20.55 2.75-22.5 2.75-25.5L2.75-25.5Q2.75-28.4 4.33-30.65 5.9-32.9 8.83-34.2 11.75-35.5 15.8-35.5L15.8-35.5Q19.05-35.5 21.55-34.63 24.05-33.75 25.7-32.33 27.35-30.9 28.23-29.28 29.1-27.65 29.15-26.1L29.15-26.1Q29.15-25.7 28.88-25.38 28.6-25.05 28.1-25.05L28.1-25.05 23.45-25.05Q23.05-25.05 22.65-25.25 22.25-25.45 22-26L22-26Q21.7-27.55 20.05-28.65 18.4-29.75 15.8-29.75L15.8-29.75Q13.1-29.75 11.45-28.75 9.8-27.75 9.8-25.65L9.8-25.65Q9.8-24.25 10.63-23.33 11.45-22.4 13.28-21.7 15.1-21 18.1-20.2L18.1-20.2Q22.35-19.25 25.05-18 27.75-16.75 29-14.83 30.25-12.9 30.25-9.95L30.25-9.95Q30.25-6.65 28.48-4.33 26.7-2 23.5-0.75 20.3 0.5 16.05 0.5ZM46.9 0.5L46.9 0.5Q42.9 0.5 40.17-0.9 37.45-2.3 36.02-4.85 34.6-7.4 34.4-10.8L34.4-10.8Q34.35-11.7 34.35-13 34.35-14.3 34.4-15.2L34.4-15.2Q34.6-18.65 36.07-21.18 37.55-23.7 40.27-25.1 43-26.5 46.9-26.5L46.9-26.5Q50.8-26.5 53.52-25.1 56.25-23.7 57.72-21.18 59.2-18.65 59.4-15.2L59.4-15.2Q59.45-14.3 59.45-13 59.45-11.7 59.4-10.8L59.4-10.8Q59.2-7.4 57.77-4.85 56.35-2.3 53.62-0.9 50.9 0.5 46.9 0.5ZM46.9-4.45L46.9-4.45Q49.55-4.45 51-6.13 52.45-7.8 52.6-11.05L52.6-11.05Q52.65-11.8 52.65-13 52.65-14.2 52.6-14.95L52.6-14.95Q52.45-18.2 51-19.88 49.55-21.55 46.9-21.55L46.9-21.55Q44.25-21.55 42.8-19.88 41.35-18.2 41.2-14.95L41.2-14.95Q41.15-14.2 41.15-13 41.15-11.8 41.2-11.05L41.2-11.05Q41.35-7.8 42.8-6.13 44.25-4.45 46.9-4.45ZM73.1 0L69 0Q68.5 0 68.15-0.35 67.8-0.7 67.8-1.2L67.8-1.2 67.8-20.7 63.75-20.7Q63.25-20.7 62.9-21.05 62.55-21.4 62.55-21.95L62.55-21.95 62.55-24.8Q62.55-25.3 62.9-25.65 63.25-26 63.75-26L63.75-26 67.8-26 67.8-28.05Q67.8-31.05 68.9-33.02 70-35 72.15-36 74.3-37 77.6-37L77.6-37 81-37Q81.55-37 81.87-36.65 82.2-36.3 82.2-35.8L82.2-35.8 82.2-32.95Q82.2-32.4 81.87-32.05 81.55-31.7 81-31.7L81-31.7 77.8-31.7Q75.8-31.7 75.05-30.7 74.3-29.7 74.3-27.8L74.3-27.8 74.3-26 80.5-26Q81.05-26 81.37-25.65 81.7-25.3 81.7-24.8L81.7-24.8 81.7-21.95Q81.7-21.4 81.37-21.05 81.05-20.7 80.5-20.7L80.5-20.7 74.3-20.7 74.3-1.2Q74.3-0.7 73.95-0.35 73.6 0 73.1 0L73.1 0ZM101.49 0L97.44 0Q94.44 0 92.39-1.05 90.34-2.1 89.34-4.17 88.34-6.25 88.34-9.35L88.34-9.35 88.34-20.7 84.39-20.7Q83.89-20.7 83.54-21.05 83.19-21.4 83.19-21.95L83.19-21.95 83.19-24.8Q83.19-25.3 83.54-25.65 83.89-26 84.39-26L84.39-26 88.34-26 88.34-34.3Q88.34-34.8 88.67-35.15 88.99-35.5 89.54-35.5L89.54-35.5 93.59-35.5Q94.09-35.5 94.44-35.15 94.79-34.8 94.79-34.3L94.79-34.3 94.79-26 101.04-26Q101.54-26 101.89-25.65 102.24-25.3 102.24-24.8L102.24-24.8 102.24-21.95Q102.24-21.4 101.89-21.05 101.54-20.7 101.04-20.7L101.04-20.7 94.79-20.7 94.79-9.85Q94.79-7.8 95.52-6.65 96.24-5.5 98.04-5.5L98.04-5.5 101.49-5.5Q101.99-5.5 102.34-5.15 102.69-4.8 102.69-4.3L102.69-4.3 102.69-1.2Q102.69-0.7 102.34-0.35 101.99 0 101.49 0L101.49 0ZM117.44 0L114.24 0Q113.54 0 113.19-0.35 112.84-0.7 112.59-1.25L112.59-1.25 105.44-24.45Q105.39-24.7 105.39-24.9L105.39-24.9Q105.39-25.35 105.72-25.68 106.04-26 106.44-26L106.44-26 110.14-26Q110.74-26 111.09-25.68 111.44-25.35 111.49-25.05L111.49-25.05 116.39-8.5 121.59-24.9Q121.69-25.25 122.04-25.63 122.39-26 123.09-26L123.09-26 125.59-26Q126.29-26 126.64-25.63 126.99-25.25 127.09-24.9L127.09-24.9 132.29-8.5 137.19-25.05Q137.24-25.35 137.57-25.68 137.89-26 138.49-26L138.49-26 142.19-26Q142.64-26 142.97-25.68 143.29-25.35 143.29-24.9L143.29-24.9Q143.29-24.7 143.19-24.45L143.19-24.45 136.04-1.25Q135.89-0.7 135.52-0.35 135.14 0 134.44 0L134.44 0 131.19 0Q130.54 0 130.12-0.35 129.69-0.7 129.54-1.25L129.54-1.25 124.34-17.05 119.14-1.25Q118.94-0.7 118.57-0.35 118.19 0 117.44 0L117.44 0ZM155.69 0.5L155.69 0.5Q153.09 0.5 150.99-0.53 148.89-1.55 147.66-3.28 146.44-5 146.44-7.15L146.44-7.15Q146.44-10.65 149.29-12.73 152.14-14.8 156.74-15.5L156.74-15.5 163.59-16.5 163.59-17.55Q163.59-19.65 162.54-20.8 161.49-21.95 158.94-21.95L158.94-21.95Q157.14-21.95 156.01-21.23 154.89-20.5 154.34-19.3L154.34-19.3Q153.94-18.65 153.19-18.65L153.19-18.65 149.24-18.65Q148.69-18.65 148.41-18.95 148.14-19.25 148.14-19.75L148.14-19.75Q148.19-20.55 148.81-21.7 149.44-22.85 150.71-23.93 151.99-25 154.04-25.75 156.09-26.5 158.99-26.5L158.99-26.5Q162.14-26.5 164.31-25.73 166.49-24.95 167.79-23.65 169.09-22.35 169.69-20.6 170.29-18.85 170.29-16.9L170.29-16.9 170.29-1.2Q170.29-0.7 169.94-0.35 169.59 0 169.09 0L169.09 0 165.04 0Q164.49 0 164.16-0.35 163.84-0.7 163.84-1.2L163.84-1.2 163.84-3.15Q163.19-2.25 162.09-1.4 160.99-0.55 159.41-0.03 157.84 0.5 155.69 0.5ZM157.39-4.25L157.39-4.25Q159.14-4.25 160.56-5 161.99-5.75 162.81-7.33 163.64-8.9 163.64-11.3L163.64-11.3 163.64-12.35 158.64-11.55Q155.69-11.1 154.24-10.1 152.79-9.1 152.79-7.65L152.79-7.65Q152.79-6.55 153.46-5.78 154.14-5 155.19-4.63 156.24-4.25 157.39-4.25ZM182.24 0L177.89 0Q177.39 0 177.04-0.35 176.69-0.7 176.69-1.2L176.69-1.2 176.69-24.75Q176.69-25.3 177.04-25.65 177.39-26 177.89-26L177.89-26 181.94-26Q182.44-26 182.81-25.65 183.19-25.3 183.19-24.75L183.19-24.75 183.19-22.7Q184.34-24.3 186.16-25.15 187.99-26 190.39-26L190.39-26 192.44-26Q192.99-26 193.31-25.65 193.64-25.3 193.64-24.8L193.64-24.8 193.64-21.2Q193.64-20.7 193.31-20.35 192.99-20 192.44-20L192.44-20 188.54-20Q186.14-20 184.81-18.68 183.49-17.35 183.49-14.95L183.49-14.95 183.49-1.2Q183.49-0.7 183.14-0.35 182.79 0 182.24 0L182.24 0ZM208.73 0.5L208.73 0.5Q203.18 0.5 199.93-2.7 196.68-5.9 196.43-11.8L196.43-11.8Q196.38-12.3 196.38-13.08 196.38-13.85 196.43-14.3L196.43-14.3Q196.63-18.1 198.16-20.83 199.68-23.55 202.38-25.03 205.08-26.5 208.73-26.5L208.73-26.5Q212.78-26.5 215.53-24.83 218.28-23.15 219.68-20.18 221.08-17.2 221.08-13.3L221.08-13.3 221.08-12.25Q221.08-11.75 220.73-11.4 220.38-11.05 219.83-11.05L219.83-11.05 203.23-11.05Q203.23-11.05 203.23-10.9 203.23-10.75 203.23-10.65L203.23-10.65Q203.28-8.9 203.91-7.43 204.53-5.95 205.76-5.05 206.98-4.15 208.68-4.15L208.68-4.15Q210.08-4.15 211.03-4.58 211.98-5 212.58-5.55 213.18-6.1 213.43-6.45L213.43-6.45Q213.88-7.05 214.16-7.18 214.43-7.3 214.98-7.3L214.98-7.3 219.28-7.3Q219.78-7.3 220.11-7 220.43-6.7 220.38-6.25L220.38-6.25Q220.33-5.45 219.56-4.3 218.78-3.15 217.33-2.05 215.88-0.95 213.71-0.23 211.53 0.5 208.73 0.5ZM203.23-15.4L203.23-15.25 214.28-15.25 214.28-15.4Q214.28-17.35 213.63-18.82 212.98-20.3 211.73-21.13 210.48-21.95 208.73-21.95L208.73-21.95Q206.98-21.95 205.73-21.13 204.48-20.3 203.86-18.82 203.23-17.35 203.23-15.4L203.23-15.4ZM251.93 0.5L251.93 0.5Q247.28 0.5 244.05-1.13 240.83-2.75 239.13-5.78 237.43-8.8 237.23-13.05L237.23-13.05Q237.18-15.1 237.18-17.45 237.18-19.8 237.23-21.95L237.23-21.95Q237.43-26.15 239.15-29.2 240.88-32.25 244.1-33.88 247.33-35.5 251.93-35.5L251.93-35.5Q255.33-35.5 258.03-34.6 260.73-33.7 262.63-32.13 264.53-30.55 265.58-28.45 266.63-26.35 266.68-23.9L266.68-23.9Q266.73-23.45 266.4-23.15 266.08-22.85 265.63-22.85L265.63-22.85 260.88-22.85Q260.33-22.85 259.98-23.13 259.63-23.4 259.48-24.05L259.48-24.05Q258.68-27.35 256.73-28.55 254.78-29.75 251.88-29.75L251.88-29.75Q248.53-29.75 246.53-27.88 244.53-26 244.38-21.7L244.38-21.7Q244.23-17.6 244.38-13.3L244.38-13.3Q244.53-9 246.53-7.13 248.53-5.25 251.88-5.25L251.88-5.25Q254.78-5.25 256.75-6.48 258.73-7.7 259.48-10.95L259.48-10.95Q259.63-11.65 259.98-11.9 260.33-12.15 260.88-12.15L260.88-12.15 265.63-12.15Q266.08-12.15 266.4-11.85 266.73-11.55 266.68-11.1L266.68-11.1Q266.63-8.65 265.58-6.55 264.53-4.45 262.63-2.88 260.73-1.3 258.03-0.4 255.33 0.5 251.93 0.5ZM283.53 0.5L283.53 0.5Q279.53 0.5 276.8-0.9 274.08-2.3 272.65-4.85 271.23-7.4 271.03-10.8L271.03-10.8Q270.98-11.7 270.98-13 270.98-14.3 271.03-15.2L271.03-15.2Q271.23-18.65 272.7-21.18 274.18-23.7 276.9-25.1 279.63-26.5 283.53-26.5L283.53-26.5Q287.43-26.5 290.15-25.1 292.88-23.7 294.35-21.18 295.83-18.65 296.03-15.2L296.03-15.2Q296.08-14.3 296.08-13 296.08-11.7 296.03-10.8L296.03-10.8Q295.83-7.4 294.4-4.85 292.98-2.3 290.25-0.9 287.53 0.5 283.53 0.5ZM283.53-4.45L283.53-4.45Q286.18-4.45 287.63-6.13 289.08-7.8 289.23-11.05L289.23-11.05Q289.28-11.8 289.28-13 289.28-14.2 289.23-14.95L289.23-14.95Q289.08-18.2 287.63-19.88 286.18-21.55 283.53-21.55L283.53-21.55Q280.88-21.55 279.43-19.88 277.98-18.2 277.83-14.95L277.83-14.95Q277.78-14.2 277.78-13 277.78-11.8 277.83-11.05L277.83-11.05Q277.98-7.8 279.43-6.13 280.88-4.45 283.53-4.45ZM307.02 0L302.82 0Q302.32 0 301.97-0.35 301.62-0.7 301.62-1.2L301.62-1.2 301.62-24.8Q301.62-25.3 301.97-25.65 302.32-26 302.82-26L302.82-26 306.72-26Q307.22-26 307.57-25.65 307.92-25.3 307.92-24.8L307.92-24.8 307.92-23.1Q308.97-24.5 310.75-25.48 312.52-26.45 314.97-26.5L314.97-26.5Q320.67-26.6 322.92-22.05L322.92-22.05Q324.07-24.05 326.25-25.28 328.42-26.5 331.07-26.5L331.07-26.5Q333.67-26.5 335.8-25.3 337.92-24.1 339.15-21.68 340.37-19.25 340.37-15.55L340.37-15.55 340.37-1.2Q340.37-0.7 340.02-0.35 339.67 0 339.17 0L339.17 0 335.07 0Q334.57 0 334.22-0.35 333.87-0.7 333.87-1.2L333.87-1.2 333.87-15.15Q333.87-17.4 333.22-18.73 332.57-20.05 331.47-20.6 330.37-21.15 329.02-21.15L329.02-21.15Q327.92-21.15 326.82-20.6 325.72-20.05 325.02-18.73 324.32-17.4 324.32-15.15L324.32-15.15 324.32-1.2Q324.32-0.7 323.97-0.35 323.62 0 323.12 0L323.12 0 319.02 0Q318.52 0 318.17-0.35 317.82-0.7 317.82-1.2L317.82-1.2 317.82-15.15Q317.82-17.4 317.12-18.73 316.42-20.05 315.32-20.6 314.22-21.15 312.97-21.15L312.97-21.15Q311.82-21.15 310.72-20.58 309.62-20 308.92-18.7 308.22-17.4 308.22-15.15L308.22-15.15 308.22-1.2Q308.22-0.7 307.87-0.35 307.52 0 307.02 0L307.02 0ZM352.22 9.5L347.97 9.5Q347.47 9.5 347.12 9.15 346.77 8.8 346.77 8.3L346.77 8.3 346.77-24.8Q346.77-25.3 347.12-25.65 347.47-26 347.97-26L347.97-26 351.92-26Q352.47-26 352.8-25.65 353.12-25.3 353.12-24.8L353.12-24.8 353.12-22.8Q354.32-24.4 356.27-25.45 358.22-26.5 361.12-26.5L361.12-26.5Q363.77-26.5 365.72-25.65 367.67-24.8 368.97-23.23 370.27-21.65 370.97-19.5 371.67-17.35 371.77-14.75L371.77-14.75Q371.82-13.9 371.82-13 371.82-12.1 371.77-11.2L371.77-11.2Q371.72-8.7 371.02-6.58 370.32-4.45 369-2.88 367.67-1.3 365.72-0.4 363.77 0.5 361.12 0.5L361.12 0.5Q358.42 0.5 356.52-0.48 354.62-1.45 353.42-3.05L353.42-3.05 353.42 8.3Q353.42 8.8 353.1 9.15 352.77 9.5 352.22 9.5L352.22 9.5ZM359.27-4.85L359.27-4.85Q361.42-4.85 362.62-5.78 363.82-6.7 364.37-8.2 364.92-9.7 365.02-11.5L365.02-11.5Q365.07-13 365.02-14.5L365.02-14.5Q364.92-16.3 364.37-17.8 363.82-19.3 362.62-20.23 361.42-21.15 359.27-21.15L359.27-21.15Q357.22-21.15 355.95-20.2 354.67-19.25 354.1-17.78 353.52-16.3 353.42-14.75L353.42-14.75Q353.37-13.85 353.37-12.85 353.37-11.85 353.42-10.9L353.42-10.9Q353.47-9.4 354.12-8.03 354.77-6.65 356.02-5.75 357.27-4.85 359.27-4.85ZM384.97 0.5L384.97 0.5Q382.37 0.5 380.27-0.53 378.17-1.55 376.94-3.28 375.72-5 375.72-7.15L375.72-7.15Q375.72-10.65 378.57-12.73 381.42-14.8 386.02-15.5L386.02-15.5 392.87-16.5 392.87-17.55Q392.87-19.65 391.82-20.8 390.77-21.95 388.22-21.95L388.22-21.95Q386.42-21.95 385.29-21.23 384.17-20.5 383.62-19.3L383.62-19.3Q383.22-18.65 382.47-18.65L382.47-18.65 378.52-18.65Q377.97-18.65 377.69-18.95 377.42-19.25 377.42-19.75L377.42-19.75Q377.47-20.55 378.09-21.7 378.72-22.85 379.99-23.93 381.27-25 383.32-25.75 385.37-26.5 388.27-26.5L388.27-26.5Q391.42-26.5 393.59-25.73 395.77-24.95 397.07-23.65 398.37-22.35 398.97-20.6 399.57-18.85 399.57-16.9L399.57-16.9 399.57-1.2Q399.57-0.7 399.22-0.35 398.87 0 398.37 0L398.37 0 394.32 0Q393.77 0 393.44-0.35 393.12-0.7 393.12-1.2L393.12-1.2 393.12-3.15Q392.47-2.25 391.37-1.4 390.27-0.55 388.69-0.03 387.12 0.5 384.97 0.5ZM386.67-4.25L386.67-4.25Q388.42-4.25 389.84-5 391.27-5.75 392.09-7.33 392.92-8.9 392.92-11.3L392.92-11.3 392.92-12.35 387.92-11.55Q384.97-11.1 383.52-10.1 382.07-9.1 382.07-7.65L382.07-7.65Q382.07-6.55 382.74-5.78 383.42-5 384.47-4.63 385.52-4.25 386.67-4.25ZM411.57 0L407.17 0Q406.67 0 406.32-0.35 405.97-0.7 405.97-1.2L405.97-1.2 405.97-24.8Q405.97-25.3 406.32-25.65 406.67-26 407.17-26L407.17-26 411.27-26Q411.77-26 412.12-25.65 412.47-25.3 412.47-24.8L412.47-24.8 412.47-22.75Q413.77-24.35 415.79-25.43 417.82-26.5 420.82-26.5L420.82-26.5Q423.87-26.5 426.12-25.13 428.37-23.75 429.59-21.25 430.82-18.75 430.82-15.25L430.82-15.25 430.82-1.2Q430.82-0.7 430.47-0.35 430.12 0 429.62 0L429.62 0 425.22 0Q424.72 0 424.37-0.35 424.02-0.7 424.02-1.2L424.02-1.2 424.02-14.95Q424.02-17.85 422.59-19.5 421.17-21.15 418.47-21.15L418.47-21.15Q415.87-21.15 414.32-19.5 412.77-17.85 412.77-14.95L412.77-14.95 412.77-1.2Q412.77-0.7 412.42-0.35 412.07 0 411.57 0L411.57 0ZM445.81 9.5L441.86 9.5Q441.46 9.5 441.16 9.2 440.86 8.9 440.86 8.5L440.86 8.5Q440.86 8.3 440.89 8.13 440.91 7.95 441.06 7.7L441.06 7.7 444.96-1.55 435.36-24.2Q435.16-24.7 435.16-24.9L435.16-24.9Q435.21-25.35 435.51-25.68 435.81-26 436.26-26L436.26-26 440.31-26Q440.91-26 441.21-25.7 441.51-25.4 441.66-25.05L441.66-25.05 448.31-8.7 455.16-25.05Q455.31-25.45 455.61-25.73 455.91-26 456.51-26L456.51-26 460.51-26Q460.91-26 461.24-25.7 461.56-25.4 461.56-25L461.56-25Q461.56-24.7 461.36-24.2L461.36-24.2 447.21 8.55Q447.01 8.95 446.71 9.22 446.41 9.5 445.81 9.5L445.81 9.5Z" opacity="1" transform="matrix(1,0,0,1,0,0)" fill="#61777f" class="undefined-text-1" data-fill-palette-color="secondary" id="text-1"></path></svg></g></svg></g></svg></g></svg></g></svg></g></svg></g></svg></g><path d="M243.989 58.11L243.989 2.32 1.429 2.32 1.429 244.88 243.989 244.88 243.989 189.09 237.112 189.09 237.112 238.003 8.306 238.003 8.306 9.197 237.112 9.197 237.112 58.11Z" fill="#000000" stroke="transparent" data-fill-palette-color="primary"></path></svg></g><defs></defs></svg><rect width="395.52" height="247.2" fill="none" stroke="none" visibility="hidden"></rect></g></svg></g></svg>